<svg width="113" height="33" viewBox="0 0 113 33" fill="none" xmlns="http://www.w3.org/2000/svg">
<g clip-path="url(#clip0_3_12)">
<path d="M17.75 22.342L11 15.592L12.06 14.532L17.75 20.22L27.94 10.031L29 11.091L17.75 22.342Z" fill="#97A8C7"/>
<path fill-rule="evenodd" clip-rule="evenodd" d="M72.095 20.462C69.905 20.462 68.515 18.942 68.515 16.902C68.515 14.862 69.905 13.342 72.095 13.342C74.245 13.342 75.675 14.862 75.675 16.902C75.675 18.942 74.245 20.462 72.095 20.462ZM72.095 14.652C70.905 14.652 70.105 15.572 70.105 16.902C70.105 18.232 70.905 19.152 72.095 19.152C73.285 19.152 74.085 18.192 74.085 16.902C74.085 15.612 73.285 14.652 72.095 14.652ZM40.215 20.342H41.805L42.285 18.932H45.045L45.525 20.342H47.165L44.605 13.462H42.775L40.215 20.342ZM42.695 17.712L43.655 14.892H43.695L44.645 17.712H42.695ZM47.996 20.342H49.546V18.162H51.146C52.826 18.162 53.756 17.162 53.756 15.772C53.756 14.412 52.826 13.462 51.146 13.462H47.996V20.342ZM50.936 14.672C51.746 14.672 52.166 15.112 52.166 15.802C52.166 16.492 51.746 16.952 50.936 16.952H49.546V14.672H50.936ZM56.489 20.342H54.939V13.462H58.089C59.769 13.462 60.699 14.412 60.699 15.772C60.699 17.162 59.769 18.162 58.089 18.162H56.489V20.342ZM59.109 15.802C59.109 15.112 58.689 14.672 57.879 14.672H56.489V16.952H57.879C58.689 16.952 59.109 16.492 59.109 15.802ZM61.882 20.342H63.432V17.942H64.682L66.202 20.342H67.892L66.202 17.742C67.132 17.392 67.622 16.612 67.622 15.652C67.622 14.282 66.722 13.462 65.002 13.462H61.882V20.342ZM64.912 14.672C65.632 14.672 66.042 15.062 66.042 15.672C66.042 16.312 65.662 16.752 64.912 16.752H63.432V14.672H64.912Z" fill="#97A8C7"/>
<path d="M80.249 20.342L82.719 13.462H81.129L79.359 18.912H79.319L77.569 13.462H75.929L78.389 20.342H80.249ZM88.842 20.342H83.572V13.462H88.732V14.732H85.122V16.232H88.062V17.422H85.122V19.072H88.842V20.342Z" fill="#97A8C7"/>
<path fill-rule="evenodd" clip-rule="evenodd" d="M90.105 20.342H92.665C95.115 20.342 96.405 18.882 96.405 16.902C96.405 14.922 95.115 13.462 92.665 13.462H90.105V20.342ZM92.585 14.732C94.205 14.732 94.805 15.722 94.805 16.902C94.805 18.082 94.205 19.072 92.585 19.072H91.655V14.732H92.585Z" fill="#97A8C7"/>
<path fill-rule="evenodd" clip-rule="evenodd" d="M0 8.342C0 6.22027 0.842855 4.18544 2.34315 2.68515C3.84344 1.18486 5.87827 0.342003 8 0.342003H105C107.122 0.342003 109.157 1.18486 110.657 2.68515C112.157 4.18544 113 6.22027 113 8.342V24.342C113 26.4637 112.157 28.4986 110.657 29.9989C109.157 31.4991 107.122 32.342 105 32.342H8C5.87827 32.342 3.84344 31.4991 2.34315 29.9989C0.842855 28.4986 0 26.4637 0 24.342V8.342ZM8 2.342H105C106.591 2.342 108.117 2.97414 109.243 4.09936C110.368 5.22458 111 6.7507 111 8.342V24.342C111 25.9333 110.368 27.4594 109.243 28.5846C108.117 29.7099 106.591 30.342 105 30.342H8C6.4087 30.342 4.88258 29.7099 3.75736 28.5846C2.63214 27.4594 2 25.9333 2 24.342V8.342C2 6.7507 2.63214 5.22458 3.75736 4.09936C4.88258 2.97414 6.4087 2.342 8 2.342Z" fill="#97A8C7"/>
</g>
<defs>
<clipPath id="clip0_3_12">
<rect width="113" height="33" fill="white"/>
</clipPath>
</defs>
</svg>
