<svg width="32" height="32" viewBox="0 0 32 32" fill="none" xmlns="http://www.w3.org/2000/svg">
<path d="M15.75 1.96875C12.095 1.96875 8.58967 3.4207 6.00518 6.00518C3.4207 8.58967 1.96875 12.095 1.96875 15.75C1.96875 19.405 3.4207 22.9103 6.00518 25.4948C8.58967 28.0793 12.095 29.5312 15.75 29.5312C19.405 29.5312 22.9103 28.0793 25.4948 25.4948C28.0793 22.9103 29.5312 19.405 29.5312 15.75C29.5312 12.095 28.0793 8.58967 25.4948 6.00518C22.9103 3.4207 19.405 1.96875 15.75 1.96875ZM13.7812 21.2527L8.85938 16.3308L10.4245 14.7656L13.7812 18.1223L21.0755 10.8281L22.6465 12.3893L13.7812 21.2527Z" fill="#97A8C7"/>
</svg>
