<svg xmlns:xlink="http://www.w3.org/1999/xlink" id="Layer_1" xmlns="http://www.w3.org/2000/svg" viewBox="0 0 108 35" width="108"  height="35" ><style fill="#6B6B6B">.st0{fill-rule:evenodd;clip-rule:evenodd}</style><path class="st0" d="M13.2 0h1c3.3.1 6.6 1.4 8.9 3.8l-2.6 2.6c-1.3-1.2-2.9-2.1-4.6-2.4-2.6-.5-5.3-.1-7.4 1.4-2.3 1.5-3.9 4.1-4.3 6.9-.4 2.7.3 5.5 2.1 7.7 1.7 2.1 4.3 3.4 7 3.5 2.5.1 5.1-.6 7-2.4 1.4-1.2 2.1-3.1 2.3-5h-9v-3.7h12.6c.6 4-.3 8.5-3.3 11.3-2 2-4.8 3.2-7.6 3.4-2.8.3-5.6-.3-8-1.6C4.4 23.9 2 21.3.9 18.2c-1.1-2.9-1.1-6.1-.1-9 .9-2.6 2.7-4.9 4.9-6.6C7.9 1 10.5.2 13.2 0zM85.3.9h3.8v25.7h-3.8c.1-8.5 0-17.1 0-25.7zM34.8 9.8c2.4-.4 4.9.1 6.9 1.5 1.8 1.3 3 3.2 3.4 5.4.5 2.5-.1 5.2-1.7 7.2-1.7 2.2-4.6 3.4-7.4 3.2-2.6-.1-5-1.4-6.5-3.5-1.7-2.3-2.1-5.5-1.2-8.2.9-2.8 3.5-5 6.5-5.6zm.6 3.5c-1 .3-1.9.8-2.5 1.6-1.7 2.1-1.6 5.5.3 7.4 1.1 1.1 2.8 1.6 4.3 1.3 1.4-.3 2.7-1.2 3.3-2.5 1.2-2.1.8-5.1-1-6.8-1.2-1-2.9-1.4-4.4-1zM53.9 9.8c2.7-.5 5.7.2 7.7 2.1 3.3 3 3.7 8.5.8 11.9-1.7 2.2-4.5 3.3-7.2 3.2-2.6-.1-5.2-1.4-6.7-3.5-1.7-2.4-2.1-5.6-1.1-8.3 1-2.7 3.5-4.9 6.5-5.4zm.5 3.5c-1 .3-1.9.8-2.5 1.6-1.7 2.1-1.7 5.4.2 7.4 1.1 1.2 2.8 1.7 4.4 1.4 1.4-.3 2.7-1.2 3.3-2.5 1.2-2.2.8-5.1-1-6.8-1.1-1.1-2.8-1.5-4.4-1.1zM70.1 10.9c2.1-1.3 4.8-1.7 7.1-.5.7.3 1.3.8 1.8 1.3v-1.5h3.6v15.9c0 2.4-.6 4.9-2.4 6.7-1.9 1.9-4.8 2.5-7.4 2.1-2.8-.4-5.2-2.4-6.3-5 1.1-.5 2.2-.9 3.3-1.4.6 1.5 1.9 2.7 3.5 3 1.6.3 3.5-.1 4.5-1.4 1.1-1.4 1.1-3.2 1.1-4.9-.8.8-1.8 1.5-2.9 1.8-2.5.7-5.3-.2-7.2-1.9-1.9-1.7-3.1-4.3-3-6.9.1-3 1.8-5.8 4.3-7.3zm3.7 2.3c-1.1.2-2.1.8-2.8 1.6-1.7 2-1.7 5.2 0 7.2 1 1.2 2.5 1.8 4 1.7 1.4-.1 2.7-1 3.4-2.3 1.2-2.1 1-5-.6-6.8-.9-1.1-2.5-1.7-4-1.4zM93.8 11.8c2.2-2 5.5-2.7 8.3-1.6 2.6 1 4.3 3.5 5.1 6.1l-11.7 4.8c.5 1 1.4 2 2.5 2.3 1.6.6 3.4.4 4.7-.7.5-.4.9-.9 1.3-1.4l3 2c-1.4 2.1-3.8 3.6-6.3 3.8-2.8.3-5.8-.7-7.6-2.9-2.9-3.5-2.6-9.3.7-12.4zm1.9 3.3c-.6.9-.9 2-.8 3l7.8-3.3c-.4-1-1.5-1.6-2.5-1.8-1.7-.2-3.5.7-4.5 2.1z" fill="#6B6B6B"></path></svg>